 <!DOCTYPE svg PUBLIC "-//W3C//DTD SVG 1.1//EN" "http://www.w3.org/Graphics/SVG/1.1/DTD/svg11.dtd">
<svg id="ab22c838-9775-4173-b9fa-45bf7340ef21" data-name="Layer 1" xmlns="http://www.w3.org/2000/svg" width="865.76" height="682.89" viewBox="0 0 865.76 682.89">
<defs>
<style xmlns="http://www.w3.org/1999/xhtml">*, ::after, ::before { box-sizing: border-box; }
img, svg { vertical-align: middle; }
</style>
<style xmlns="http://www.w3.org/1999/xhtml">*, body, html { -webkit-font-smoothing: antialiased; }
img, svg { max-width: 100%; }
</style>
</defs>
<path d="M162.17,11.27H493.43a8.27,8.27,0,0,1,8.27,8.27v234.2a0,0,0,0,1,0,0H155.09a0,0,0,0,1,0,0V18.36A7.08,7.08,0,0,1,162.17,11.27Z" fill="#ccc"/>
<path d="M162.17,11.27H493.43a8.27,8.27,0,0,1,8.27,8.27V30.46a0,0,0,0,1,0,0H155.09a0,0,0,0,1,0,0V18.36A7.08,7.08,0,0,1,162.17,11.27Z" opacity="0.2"/>
<rect x="188.35" y="74.17" width="77.2" height="55.74" fill="#fff"/>
<path d="M206.52,98.87c-6.22,3.81-14.35,10.4-18.17,20.36v10.69h77.2V114.24s-8.18-8.6-17.91-4.32a17.83,17.83,0,0,1-9.54,1.49c-3.14-.43-6.4-1.77-7.7-5.25l-.15-.31A16.68,16.68,0,0,0,206.52,98.87Z" fill="#bcbec0"/>
<circle cx="249.22" cy="86.5" r="5.76" fill="#bcbec0"/>
<rect x="296.02" y="74.17" width="77.2" height="55.74" fill="#fff"/>
<path d="M314.19,98.87c-6.23,3.81-14.35,10.4-18.17,20.36v10.69h77.2V114.24s-8.19-8.6-17.91-4.32a17.85,17.85,0,0,1-9.55,1.49c-3.14-.43-6.39-1.77-7.7-5.25a3.31,3.31,0,0,0-.14-.31A16.68,16.68,0,0,0,314.19,98.87Z" fill="#bcbec0"/>
<circle cx="356.89" cy="86.5" r="5.76" fill="#bcbec0"/>
<rect x="405.15" y="74.17" width="77.2" height="55.74" fill="#fff"/>
<path d="M423.33,98.87c-6.23,3.81-14.36,10.4-18.18,20.36v10.69h77.2V114.24s-8.18-8.6-17.91-4.32a17.83,17.83,0,0,1-9.54,1.49c-3.14-.43-6.4-1.77-7.7-5.25l-.15-.31A16.67,16.67,0,0,0,423.33,98.87Z" fill="#bcbec0"/>
<circle cx="466.02" cy="86.5" r="5.76" fill="#bcbec0"/>
<rect x="187.62" y="158.74" width="77.2" height="55.74" fill="#fff"/>
<path d="M205.79,183.44c-6.23,3.81-14.35,10.4-18.17,20.35v10.69h77.2V198.8s-8.19-8.59-17.91-4.32a17.86,17.86,0,0,1-9.55,1.5c-3.14-.43-6.39-1.77-7.7-5.25a3.31,3.31,0,0,0-.14-.31A16.68,16.68,0,0,0,205.79,183.44Z" fill="#bcbec0"/>
<circle cx="248.49" cy="171.07" r="5.76" fill="#bcbec0"/>
<rect x="295.29" y="158.74" width="77.2" height="55.74" fill="#fff"/>
<path d="M313.46,183.44c-6.23,3.81-14.36,10.4-18.17,20.35v10.69h77.2V198.8s-8.19-8.59-17.91-4.32A17.86,17.86,0,0,1,345,196c-3.14-.43-6.39-1.77-7.7-5.25l-.14-.31A16.68,16.68,0,0,0,313.46,183.44Z" fill="#bcbec0"/>
<circle cx="356.16" cy="171.07" r="5.76" fill="#bcbec0"/>
<rect x="404.42" y="158.74" width="77.2" height="55.74" fill="#fff"/>
<path d="M422.59,183.44c-6.22,3.81-14.35,10.4-18.17,20.35v10.69h77.2V198.8s-8.19-8.59-17.91-4.32a17.86,17.86,0,0,1-9.55,1.5c-3.14-.43-6.39-1.77-7.7-5.25a3.31,3.31,0,0,0-.14-.31A16.68,16.68,0,0,0,422.59,183.44Z" fill="#bcbec0"/>
<circle cx="465.29" cy="171.07" r="5.76" fill="#bcbec0"/>
<rect x="237.76" y="46.3" width="180.54" height="6.97" fill="#fff"/>
<circle cx="455.75" cy="20.88" r="3.19" fill="#a7a9ac"/>
<circle cx="467.21" cy="20.88" r="3.19" fill="#a7a9ac"/>
<circle cx="478.67" cy="20.87" r="3.19" fill="#a7a9ac"/>
<path d="M234.84,361.07c1.13.11,11.53-21.6,11.53-21.6l23.92,13-2.63,21.48Z" fill="#f9b499"/>
<path d="M67,231.11H289.1a4.71,4.71,0,0,1,4.71,4.71v87.26a6.34,6.34,0,0,1-6.34,6.34H68a6.34,6.34,0,0,1-6.34-6.34v-86.7A5.27,5.27,0,0,1,67,231.11Z" fill="#ccc"/>
<rect x="79.08" y="265.32" width="123.05" height="7.13" rx="3.21" fill="#fff"/>
<rect x="79.08" y="283.37" width="200.49" height="7.13" rx="3.21" fill="#fff"/>
<rect x="79.08" y="300.32" width="200.49" height="7.13" rx="3.21" fill="#fff"/>
<path d="M67,231.11H289.1a4.71,4.71,0,0,1,4.71,4.71v12.87a0,0,0,0,1,0,0H61.69a0,0,0,0,1,0,0V236.38A5.27,5.27,0,0,1,67,231.11Z" opacity="0.2"/>
<circle cx="250.11" cy="239.43" r="3.8" fill="#ccc"/>
<circle cx="261.75" cy="239.43" r="3.8" fill="#ccc"/>
<circle cx="273.39" cy="239.43" r="3.8" fill="#ccc"/>
<path d="M463.37,136.09H797.43a6.64,6.64,0,0,1,6.64,6.64V355.65a0,0,0,0,1,0,0h-347a0,0,0,0,1,0,0V142.39A6.3,6.3,0,0,1,463.37,136.09Z" fill="#a7a9ac"/>
<path d="M463.66,136.09H797.43a6.64,6.64,0,0,1,6.64,6.64V155.1a0,0,0,0,1,0,0h-347a0,0,0,0,1,0,0V142.67A6.58,6.58,0,0,1,463.66,136.09Z" opacity="0.2"/>
<rect x="481.62" y="171.07" width="181.19" height="5.76" fill="#fff"/>
<circle cx="757.05" cy="144.08" r="3.96" fill="#a7a9ac"/>
<circle cx="769.06" cy="144.08" r="3.96" fill="#a7a9ac"/>
<circle cx="781.07" cy="144.08" r="3.96" fill="#a7a9ac"/>
<rect x="481.62" y="194.89" width="312.66" height="142.63" fill="#fff"/>
<circle cx="638.77" cy="258.18" r="22.02" fill="#a7a9ac"/>
<polygon points="632.72 250.27 632.72 267.38 646.34 258.83 632.72 250.27" fill="#fff"/>
<rect x="508.25" y="322.65" width="272.82" height="5.67" fill="#a7a9ac"/>
<circle cx="283" cy="329.2" r="11.95" fill="#a7a9ac"/>
<g id="afc4d786-6f0d-45ff-a11e-d37f555f0fe0" data-name="freepik--Floor--inject-658">
<path d="M583.13,665.83c0,.14-109.73.27-245,.27S93,666,93,665.83s109.69-.28,245-.28S583.13,665.68,583.13,665.83Z" fill="#263238"/>
</g>
<path d="M540.43,554.89v111H382.06s-4.12-81.71,20-111Z" fill="#2f2e41" data-secondary="true"/>
<path d="M424.24,665.84a.76.76,0,0,1,0-.3v-.86c0-.8.05-1.92.08-3.32.1-2.9.2-7.07.44-12.23.62-10.3,1.55-24.57,3.94-40.16s5.76-29.53,9.42-39.19a76,76,0,0,1,5-11.16,31.55,31.55,0,0,1,1.77-2.81l.53-.69a1.34,1.34,0,0,1,.2-.21,1.2,1.2,0,0,1-.15.24l-.48.72c-.4.65-1,1.59-1.68,2.86a81,81,0,0,0-4.85,11.19c-3.55,9.68-6.86,23.59-9.24,39.19s-3.37,29.8-4.1,40.1c-.26,5.11-.47,9.28-.62,12.2-.07,1.41-.13,2.52-.18,3.32a5,5,0,0,1-.06.86A2.21,2.21,0,0,1,424.24,665.84Z" opacity="0.2"/>
<path d="M530.38,564.79v94.58h-97.6s4.7-78.57,18.78-94.62Z" opacity="0.2"/>
<path d="M391,598.39c0-.15,6.36-.28,14.25-.28s14.25.13,14.25.28-6.35.28-14.25.28S391,598.55,391,598.39Z" opacity="0.2"/>
<path d="M394.92,592.38c0-.16,5.73-.27,12.79-.27s12.8.11,12.8.27-5.73.28-12.8.28S394.92,592.54,394.92,592.38Z" opacity="0.2"/>
<path d="M387.17,634.83a1.22,1.22,0,0,1,0-.27v-.81a24,24,0,0,1,4.39-13.69,16,16,0,0,1,2.64-2.76,12.29,12.29,0,0,1,3.64-2,10.24,10.24,0,0,1,4.43-.44,11.43,11.43,0,0,1,4.44,1.61,17.18,17.18,0,0,1,6.27,7.77,27.14,27.14,0,0,1,0,21.08,17.12,17.12,0,0,1-6.27,7.77,11.43,11.43,0,0,1-4.44,1.61,10.24,10.24,0,0,1-4.43-.44,12.29,12.29,0,0,1-3.64-2,15.34,15.34,0,0,1-2.64-2.76,24,24,0,0,1-4.39-13.68V635a1.22,1.22,0,0,1,0-.27,1.22,1.22,0,0,1,0,.27,5,5,0,0,0,.05.81c.06,1,.17,2,.33,3.06a23.29,23.29,0,0,0,4.23,10.35,15.64,15.64,0,0,0,2.61,2.66,11.38,11.38,0,0,0,3.52,1.88,9.63,9.63,0,0,0,4.23.41,10.94,10.94,0,0,0,4.24-1.57,16.72,16.72,0,0,0,6.05-7.55,26.88,26.88,0,0,0,0-20.65,16.72,16.72,0,0,0-6.05-7.55,10.92,10.92,0,0,0-4.24-1.56,9.93,9.93,0,0,0-4.23.39,11.65,11.65,0,0,0-3.52,1.9,16,16,0,0,0-2.61,2.65,23.45,23.45,0,0,0-4.23,10.35c-.16,1-.27,2-.33,3.07a3.7,3.7,0,0,1-.05.8A2,2,0,0,1,387.17,634.83Z" opacity="0.2"/>
<path d="M223.94,457.25c-3.86-18.1-7.35-43.56-13.47-52.74-5-7.41-17.13-15.29-20.25-29.05-1.67-7.35-3.4-13.19-4.64-17a7.49,7.49,0,0,0-7.14-5.19H143a6.67,6.67,0,0,0-6.68,6.65c0,.14,0,.29,0,.44.52,8.2,1.06,21.19-.52,26.09-2.34,7.36-6.16,20.89-4.69,27.32.58,2.54,10,30.48,15.32,46.89a126.35,126.35,0,0,1,5.3,24.07L157.6,533l84.57-1.85S226.87,470.82,223.94,457.25Zm-62.82-60.14c-.52.39-1.24,0-1.74-.43a28.53,28.53,0,0,1-8.77-11.39,28.07,28.07,0,0,1-1.54-8.61,34.45,34.45,0,0,1,.15-9,11.41,11.41,0,0,1,4.56-7.42,3.6,3.6,0,0,1,3.53-.53c1.22.66,1.54,2.23,1.73,3.59l1.78,20.48c.19,3.87.53,8.47.64,12A1.46,1.46,0,0,1,161.12,397.11Zm19.55-12.62a28.78,28.78,0,0,1-6.91,12.6c-.45.47-1.06,1-1.66.68s-.51-.76-.58-1.22c-.42-3.58-.78-8.12-1.17-12L169,364.06c0-1.38.07-3,1.17-3.81a3.56,3.56,0,0,1,3.57,0,11.33,11.33,0,0,1,5.64,6.67,34.05,34.05,0,0,1,1.51,8.84A28.72,28.72,0,0,1,180.67,384.49Z" fill="#2f2e41" data-secondary="true"/>
<path d="M223.94,457.25c-3.86-18.1-7.35-43.56-13.47-52.74-5-7.41-17.13-15.29-20.25-29.05-1.67-7.35-3.4-13.19-4.64-17a7.49,7.49,0,0,0-7.14-5.19H143a6.67,6.67,0,0,0-6.68,6.65c0,.14,0,.29,0,.44.52,8.2,1.06,21.19-.52,26.09-2.34,7.36-6.16,20.89-4.69,27.32.58,2.54,10,30.48,15.32,46.89a126.35,126.35,0,0,1,5.3,24.07L157.6,533l84.57-1.85S226.87,470.82,223.94,457.25Zm-62.82-60.14c-.52.39-1.24,0-1.74-.43a28.53,28.53,0,0,1-8.77-11.39,28.07,28.07,0,0,1-1.54-8.61,34.45,34.45,0,0,1,.15-9,11.41,11.41,0,0,1,4.56-7.42,3.6,3.6,0,0,1,3.53-.53c1.22.66,1.54,2.23,1.73,3.59l1.78,20.48c.19,3.87.53,8.47.64,12A1.46,1.46,0,0,1,161.12,397.11Zm19.55-12.62a28.78,28.78,0,0,1-6.91,12.6c-.45.47-1.06,1-1.66.68s-.51-.76-.58-1.22c-.42-3.58-.78-8.12-1.17-12L169,364.06c0-1.38.07-3,1.17-3.81a3.56,3.56,0,0,1,3.57,0,11.33,11.33,0,0,1,5.64,6.67,34.05,34.05,0,0,1,1.51,8.84A28.72,28.72,0,0,1,180.67,384.49Z" opacity="0.2"/>
<path d="M228.35,457.25c-3.85-18.1-7.35-43.56-13.47-52.74-5-7.41-17.12-15.29-20.25-29.05-1.68-7.35-3.39-13.19-4.64-17a7.47,7.47,0,0,0-7.13-5.19h-35.5a6.67,6.67,0,0,0-6.67,6.67c0,.14,0,.28,0,.42.52,8.2,1.06,21.19-.51,26.09-2.35,7.36-6.16,20.89-4.7,27.32.58,2.54,10,30.48,15.33,46.89a127.1,127.1,0,0,1,5.29,24.07L162,533l84.59-1.85S231.24,470.82,228.35,457.25Zm-62.82-60.14c-.52.39-1.24,0-1.75-.43a24.43,24.43,0,0,1-10.27-20,34,34,0,0,1,.15-9,11.41,11.41,0,0,1,4.56-7.42,3.6,3.6,0,0,1,3.53-.53c1.22.66,1.53,2.23,1.73,3.59l1.77,20.48c.2,3.87.53,8.47.65,12A1.51,1.51,0,0,1,165.53,397.11Zm19.54-12.62a28.72,28.72,0,0,1-6.93,12.6c-.44.47-1,1-1.66.68a1.49,1.49,0,0,1-.56-1.22c-.43-3.58-.78-8.12-1.19-12l-1.34-20.51c0-1.38.06-3,1.17-3.81a3.54,3.54,0,0,1,3.56,0,11.35,11.35,0,0,1,5.65,6.67,34,34,0,0,1,1.5,8.84A28.1,28.1,0,0,1,185.07,384.49Z" fill="#2f2e41" data-secondary="true"/>
<path d="M219.88,434.68c0,.16-17.11.28-38.2.28s-38.2-.12-38.2-.28,17.1-.28,38.2-.28S219.88,434.5,219.88,434.68Z" fill="#3f3d56"/>
<path d="M249.11,542.61s-17.75-71.56-20.64-85.13c-3.86-18.1-7.35-43.56-13.48-52.73-5-7.42-17.11-15.3-20.25-29.06-1.67-7.35-3.39-13.19-4.64-17a7.48,7.48,0,0,0-7.13-5.19" fill="none"/>
<path d="M244.6,542.61s-18-71.56-20.86-85.13c-3.85-18.1-7.35-43.56-13.47-52.73-5-7.42-17.12-15.3-20.25-29.06-1.66-7.35-3.39-13.19-4.64-17a7.5,7.5,0,0,0-7.13-5.19" fill="none"/>
<rect x="249.13" y="560.69" width="8.15" height="89.72" fill="#ccc"/>
<rect x="245.4" y="579.11" width="15.28" height="64.62" fill="#ccc"/>
<rect x="245.4" y="579.11" width="15.28" height="64.62" opacity="0.2"/>
<path d="M166.8,546.19S216.28,562,252,562s76.91-15.83,76.91-15.83H164.56" fill="#ccc"/>
<path d="M166.8,546.19S216.28,562,252,562s76.91-15.83,76.91-15.83H164.56" opacity="0.2"/>
<path d="M156.9,524.44v16.35a6.5,6.5,0,0,0,6.51,6.51H325.79a6.51,6.51,0,0,0,6.51-6.51V533a6.52,6.52,0,0,0-6.43-6.51l-169-2" fill="#2f2e41" data-secondary="true"/>
<path d="M175.15,645.54s32.55-30.89,78.66-30.22,77.46,30.22,77.46,30.22l-4.52,5.1S290,629.58,251.1,631.27s-72,19.37-72,19.37Z" fill="#2f2e41" data-secondary="true"/>
<path d="M184.73,649.7c7.83,10.29-3.8,21.92-14.08,14.08C162.82,653.5,174.44,641.88,184.73,649.7Z" fill="#2f2e41" data-secondary="true"/>
<path d="M262.64,656.2a9.62,9.62,0,1,1-9.63-9.61h0a9.61,9.61,0,0,1,9.62,9.6Z" fill="#2f2e41" data-secondary="true"/>
<path d="M343.38,656.2a9.61,9.61,0,1,1-9.61-9.61,9.6,9.6,0,0,1,9.61,9.61Z" fill="#2f2e41" data-secondary="true"/>
<path d="M223.38,476.08l1.06,4.6h97.33a3.93,3.93,0,0,0,3.88-3.3h0a3.9,3.9,0,0,0-2.25-4.23c-6.17-2.83-23.18-9-53.55-8.62-43.06.49-46.47,7.27-46.47,7.27Z" fill="#2f2e41" data-secondary="true"/>
<path d="M292.83,476.87c-.19,1.48-16.28,56.13-16.28,56.13H259.91L276,476.87Z" fill="#2f2e41" data-secondary="true"/>
<path d="M269.6,356.55a46.7,46.7,0,0,1-24.12-11.78s-.74,16.8,23.43,17.4Z" fill="#f9af8f"/>
<path d="M286.86,305.48s-2.45-8.93-6.27-11.44c-4.63-3-7.41,2.12-12,.17s-8.9-4.82-14.19-1.83c-5.79,3.29-3.69,6.4-4.8,12.36-4.51,24.13-9.85,30.42-9.61,18.8,0-1.27-3.32-2.72-3.18-8.09.24-6.95,1.06-15.33,3.25-20,1.82-3.94,4.54-6.47,9.15-9.05,7.28-4.07,16.4-3,22.5-1.54S288.82,295,286.86,305.48Z" fill="#2f2e41" data-secondary="true"/>
<path d="M238,301a2.17,2.17,0,0,0,.34,1.85,3,3,0,0,0,1.7,1.33,3.18,3.18,0,0,0,2.73-.43l-.38-.1a9.07,9.07,0,0,0,1.55,2.54,5.15,5.15,0,0,0,1.55,1.27,4.15,4.15,0,0,0,4.69-.76,5.41,5.41,0,0,0,1-1.82,1.78,1.78,0,0,0,.17-.74s-.14.23-.36.65a6.07,6.07,0,0,1-1.06,1.64,3.77,3.77,0,0,1-5.33-.31,3.11,3.11,0,0,1-.23-.28,9.06,9.06,0,0,1-1.47-2.39l-.13-.29-.26.18a2.82,2.82,0,0,1-3.88-.63A4.59,4.59,0,0,1,238,301Z" fill="#455a64"/>
<path d="M321.29,610.69,311.9,639s25.6,19.06,24.36,24.45l-55.5-16.26L293.6,602.5Z" fill="#263238"/>
<path d="M321.29,610.69,311.9,639s31.48,3.82,24.36,24.45l-55.5-16.26L293.6,602.5Z" fill="#0071f2" data-primary="true"/>
<g opacity="0.08">
<path d="M321.29,610.69,311.9,639s31.48,3.82,24.36,24.45l-55.5-16.26L293.6,602.5Z" fill="#fff"/>
</g>
<path d="M312.87,638.92c-.08.28-1.47,0-3.06.48s-2.63,1.41-2.86,1.23.65-1.62,2.59-2.12S313,638.73,312.87,638.92Z" fill="#e0e0e0"/>
<path d="M318,643.08c0,.28-1.33.4-2.58,1.28s-1.87,2-2.11,1.91,0-1.67,1.6-2.73S318.06,642.82,318,643.08Z" fill="#e0e0e0"/>
<path d="M319.26,651c-.26,0-.24-1.49.89-2.77s2.57-1.49,2.62-1.24-1,.83-1.88,1.9S319.54,651.07,319.26,651Z" fill="#e0e0e0"/>
<path d="M314.3,632.28c-.19.21-1.32-.53-2.88-.87s-2.9-.21-3-.49,1.36-.9,3.17-.46S314.49,632.11,314.3,632.28Z" fill="#e0e0e0"/>
<path d="M330.14,618,329,646.28s34.55-5.1,30.15,18.24l-57.84-.18-.09-46.5Z" fill="#0071f2" data-primary="true"/>
<path d="M260.66,470.45s67.79,15.73,76.42,27.73c7.28,10.14-13.24,122.2-13.24,122.2l-37.34-2.66,5-98.36-77.65-24.69,11.74-29.83Z" fill="#2f2e41" data-secondary="true"/>
<path d="M260.66,470.45s67.79,15.73,76.42,27.73c7.28,10.14-13.24,122.2-13.24,122.2l-37.34-2.66,5-98.36-77.65-24.69,11.74-29.83Z" fill="#fff" opacity="0.21"/>
<path d="M265.81,480.54s70.87,17.22,78.05,29.47c3.34,5.71,1.14,24.45-.1,33.3-.85,6-13.38,89.39-13.38,89.39H299.74l.68-94.26h0l-73.65-14.83s-39.53,3-41.06-13.86l16.49-22.29,39-19.25Z" fill="#2f2e41" data-secondary="true"/>
<path d="M265.81,480.54s70.87,17.22,78.05,29.47c3.34,5.71,1.14,24.45-.1,33.3-.85,6-13.38,89.39-13.38,89.39H299.74l.68-94.26h0l-73.65-14.83s-39.53,3-41.06-13.86l16.49-22.29,39-19.25Z" fill="#fff" opacity="0.08"/>
<path d="M270.29,371.8s8.84,3.6,13.87,15.82c3.54,8.59,23.18,35.71,23.18,35.71l52.27,11.6,1.77,16.67-83.59-.68-11.65-37Z" fill="#0071f2" data-primary="true"/>
<path d="M268.35,367.22l7.9,8.76-16.71,85.79,7.13,9.81-81,38.22s-6.18-35-3.09-58.57c3.09-23.43,11.08-49.93,19.93-70.49,3.68-8.54,14.67-16.83,23.3-20.43l11.8-3.26,30,16.71Z" fill="#0071f2" data-primary="true"/>
<path d="M202.51,492.45A3.05,3.05,0,0,1,203,492l1.4-1.29c.62-.56,1.37-1.24,2.28-2s1.93-1.63,3.1-2.54c2.32-1.85,5.18-3.92,8.48-6.11s7-4.38,11-6.51,7.94-3.89,11.58-5.39,7-2.65,9.8-3.52c1.41-.46,2.72-.8,3.85-1.12s2.12-.58,2.92-.76l1.87-.44a2.85,2.85,0,0,1,.65-.11,3.35,3.35,0,0,1-.63.22l-1.83.52c-.81.22-1.78.49-2.91.84s-2.4.71-3.8,1.2c-2.82.92-6.12,2.12-9.74,3.61s-7.52,3.32-11.52,5.42-7.68,4.33-11,6.45-6.13,4.23-8.47,6c-1.2.87-2.23,1.74-3.18,2.46s-1.71,1.38-2.33,1.92L203.05,492A3.49,3.49,0,0,1,202.51,492.45Z" fill="#263238"/>
<path d="M242.82,462.84c.06.13-7.56,4.42-17,9.53s-17.22,9.25-17.29,9.12,7.56-4.41,17-9.53S242.76,462.71,242.82,462.84Z" fill="#263238"/>
<g opacity="0.3">
<path d="M215.22,400.88c4.87,21.05,19.75,39.9,39.57,48.48A467.73,467.73,0,0,1,215.22,400.88Z"/>
</g>
<g opacity="0.3">
<path d="M271.74,384.86c1.92,8.91.5,20-4,28l-1.16-2.32c1.58-6.68,3.85-18.57,5.1-25.67"/>
</g>
<path d="M358.57,435.76c.45-.68,6.35-7.42,7.89-7.42s3.38,1.8,3.38,1.8a5.85,5.85,0,0,1,3.38-.45c1.34.45,7.65,5.86,7.65,7.89V441a8.73,8.73,0,0,1,0,2.7c-.23,1.58-4.05,4.24-4.05,4.24H355.2s-4.13-2.79-3.61-5.41S358.57,435.76,358.57,435.76Z" fill="#f9b499"/>
<path d="M369.86,430.12a8.46,8.46,0,0,1,1.34.77l3.57,2.25A10.83,10.83,0,0,1,376,434a3.18,3.18,0,0,1,.87,1.35A6.75,6.75,0,0,1,377,437c0,.56.05,1.13.08,1.71.12,2.37.25,5,.37,7.67l.07,1.23v.21l-.2,0-1.33.33H376a2.84,2.84,0,0,1-1.7-.63,4.77,4.77,0,0,1-1.05-1.31,10.88,10.88,0,0,1-1.14-2.91,26.74,26.74,0,0,1-.75-5.19l.12.16-3.77-1.49a8.3,8.3,0,0,1-1.36-.61,7.76,7.76,0,0,1,1.42.43l3.83,1.33h.12v.13a26.63,26.63,0,0,0,.83,5.09,11.07,11.07,0,0,0,1.11,2.77,2.9,2.9,0,0,0,2.36,1.68h-.06l1.32-.33-.2.27a10.2,10.2,0,0,0-.05-1.23c-.12-2.71-.24-5.3-.33-7.67a12.31,12.31,0,0,0-.08-1.72,6.22,6.22,0,0,0-.14-1.55,2.75,2.75,0,0,0-.74-1.19,11.1,11.1,0,0,0-1.11-.79l-3.48-2.4A7.28,7.28,0,0,1,369.86,430.12Z" fill="#ff9a6c"/>
<path d="M355.2,447.14a7.78,7.78,0,0,1,1.45-.19l3.94-.31h.06a45.1,45.1,0,0,0,4.45.8,22.59,22.59,0,0,0,2.6.21,2.88,2.88,0,0,0,2.37-.67,2.11,2.11,0,0,0,.38-1.33c0-.49-.07-1-.09-1.51a1.89,1.89,0,0,0-.59-1.12,4.92,4.92,0,0,0-1.06-.8,8.23,8.23,0,0,0-4.63-.82,3.65,3.65,0,0,1-3.07-1.22c-.47-.68-.43-1.17-.4-1.16a3.85,3.85,0,0,0,.56,1.06,3.53,3.53,0,0,0,2.91,1,8.35,8.35,0,0,1,4.87.76,4.9,4.9,0,0,1,1.19.88,2.31,2.31,0,0,1,.75,1.45c0,.46.09,1,.09,1.53a2.69,2.69,0,0,1-.49,1.65,2.34,2.34,0,0,1-1.36.77,6.21,6.21,0,0,1-1.43.08,21.37,21.37,0,0,1-2.65-.23,38.36,38.36,0,0,1-4.49-.9h.06l-3.95.15A6.59,6.59,0,0,1,355.2,447.14Z" fill="#ff9a6c"/>
<path d="M377.27,447.05a35.14,35.14,0,0,1,1.74-3.92,17.94,17.94,0,0,1,2-3.81,19.3,19.3,0,0,1-1.51,4A12.37,12.37,0,0,1,377.27,447.05Z" fill="#ff9a6c"/>
<path d="M214.16,399.35s38.13,51.9,44.06,51.9h55.66V430.12l-42.09-9.92s-20.73-42.9-25.32-48.4-16.85-12.89-26-4.63S214.16,399.35,214.16,399.35Z" fill="#0071f2" data-primary="true"/>
<path d="M214.16,399.35s38.13,51.9,44.06,51.9h55.66V430.12l-42.09-9.92s-20.73-42.9-25.32-48.4-16.85-12.89-26-4.63S214.16,399.35,214.16,399.35Z" opacity="0.2"/>
<path d="M313.8,432.16l9.12-.73s.2-3.38,2.19-4.58,1.79-3.78,3-3.58a5.18,5.18,0,0,0,2,0l7.56-6.35,6.35-4.18,5-1s3,.79,0,3.58l-3.18,1.79L343,419.9l6.35-3.12a2.14,2.14,0,0,1,1.88,0,27,27,0,0,1,4.89,2.74,1.39,1.39,0,0,1,.05,2l-.05,0,2.81,2.4s.59,3.17-2.6,2.39l-2.58-.6-3.38,3.39s11.55-2.4,12.34-2a2.28,2.28,0,0,1,.64,3.15,2.43,2.43,0,0,1-.64.64c-1.79,1.58-8.76,1.19-10.35,2.78s-12.13,11.21-14.71,11.81-23.83,5.78-23.83,5.78Z" fill="#f9b499"/>
<path d="M359,423.91a11.49,11.49,0,0,1-1.57-1.12c-.48-.35-1.06-.76-1.69-1.19a8.77,8.77,0,0,0-1.06-.66,2.31,2.31,0,0,0-1.06-.44,6.53,6.53,0,0,0-2.23.93c-.67.37-1.29.72-1.8,1.06a9.83,9.83,0,0,1-1.68.93,5.89,5.89,0,0,1,1.48-1.24c.49-.34,1.06-.73,1.77-1.13l1.06-.61a3.23,3.23,0,0,1,1.36-.42,1.13,1.13,0,0,1,.41.05l.35.14.58.33c.37.23.72.47,1.06.71.64.46,1.19.91,1.64,1.3C358.51,423.24,359,423.81,359,423.91Z" fill="#ff9a6c"/>
<path d="M331,422.5c.08.12-.87.94-2,2s-2,1.95-2.12,1.84a7,7,0,0,1,1.76-2.21A5.67,5.67,0,0,1,331,422.5Z" fill="#ff9a6c"/>
<path d="M168.72,476.08l1.06,4.6h97.34a3.93,3.93,0,0,0,3.87-3.3h0a3.9,3.9,0,0,0-2.24-4.23c-6.18-2.83-23.19-9-53.55-8.62-43.06.49-46.47,7.27-46.47,7.27Z" fill="#2f2e41" data-secondary="true"/>
<path d="M168.72,476.08l1.06,4.6h97.34a3.93,3.93,0,0,0,3.87-3.3h0a3.9,3.9,0,0,0-2.24-4.23c-6.18-2.83-23.19-9-53.55-8.62-43.06.49-46.47,7.27-46.47,7.27Z" opacity="0.2"/>
<path d="M238.17,476.87C238,478.35,221.89,533,221.89,533H205.25l16.07-56.13Z" fill="#2f2e41" data-secondary="true"/>
<path d="M238.17,476.87C238,478.35,221.89,533,221.89,533H205.25l16.07-56.13Z" opacity="0.2"/>
<path d="M451.48,381.69c-.11.58,18.47,68.79,18.47,68.79l-29.66.1-.13,3.1h35.62l-20.22-79.12Z" fill="#ccc"/>
<rect x="390.51" y="360.47" width="128.77" height="7.56" transform="translate(-28.33 689.99) rotate(-72.67)" fill="#ccc"/>
<rect x="390.51" y="360.47" width="128.77" height="7.56" transform="translate(-28.33 689.99) rotate(-72.67)" opacity="0.2"/>
<rect x="331.79" y="447.92" width="76.35" height="5.66" fill="#ccc"/>
<path d="M381.8,453.85a14.72,14.72,0,0,1,0-5.69A15.12,15.12,0,0,1,381.8,453.85Z" opacity="0.2"/>
<rect x="215.8" y="466.54" width="11.83" height="199.2" fill="#ccc"/>
<rect x="442.79" y="462.59" width="11.83" height="203.15" fill="#ccc"/>
<rect x="130.74" y="453.57" width="372.51" height="12.41" fill="#ccc"/>
<rect x="130.74" y="453.57" width="372.51" height="12.41" opacity="0.2"/>
<path d="M313.33,465.63a34.76,34.76,0,0,1-.28-6,33.8,33.8,0,0,1,.28-6,67.47,67.47,0,0,1,0,12.06Z" fill="#ccc"/>
<ellipse cx="265.53" cy="325.01" rx="34.51" ry="23.36" transform="translate(-95.68 538.71) rotate(-81.36)" fill="#f9b499"/>
<path d="M260.09,283.83c.28-4.73,3.53-5.06,5.94-4.24a8.37,8.37,0,0,1,10.2,1.54,7.4,7.4,0,0,1,9.76,3.81,7.31,7.31,0,0,1,.59,3.69,6.23,6.23,0,0,1,4,11.11,6,6,0,0,1-4,11.2l-27.09-22C258,286.9,260,286.36,260.09,283.83Z" fill="#2f2e41" data-secondary="true"/>
<path d="M243.39,305.41a8.81,8.81,0,0,0,3.68,2.32,3,3,0,0,0,3.62-1.67c.19-.63.14-1.4.62-1.84s1.49-.21,2.25,0a6,6,0,0,0,6.67-3.42c.55,1.06,2.12,1.27,3.29.74a13.83,13.83,0,0,0,2.87-2.36,3.79,3.79,0,0,1,3.36-1.17,9.4,9.4,0,0,0,2,.71c1.22,0,2-1.29,2.34-2.48s.67-2.56,1.78-3.08,2.23,0,3.32.34,2.57.24,3-.82A2.16,2.16,0,0,0,282,291a6,6,0,0,0-6.76-3.18,8.17,8.17,0,0,0-14.69-3.53A8.31,8.31,0,0,0,247,285.52a6,6,0,0,0-7.86,7.8,5.69,5.69,0,0,0-3.71,4.1c-.28,1.9,1.33,4.05,3.25,3.79a3.33,3.33,0,1,0,5.29,4.05" fill="#2f2e41" data-secondary="true"/>
<path d="M237.91,315.23v1h3.45c3-30.27,19.25-32.27,18.89-32.53a4.3,4.3,0,0,1,1.35-3.58C238.74,282.81,237.75,314.75,237.91,315.23Z" fill="#a7a9ac"/>
<path d="M237.91,315.23v1h3.45c3-30.27,19.25-32.27,18.89-32.53a4.3,4.3,0,0,1,1.35-3.58C238.74,282.81,237.75,314.75,237.91,315.23Z" opacity="0.2"/>
<circle cx="238.28" cy="325.18" r="11.95" fill="#a7a9ac"/>
<path d="M244.58,325a12,12,0,0,0-.29-1.45,6.1,6.1,0,0,0-2.21-3.18,5.81,5.81,0,1,0,0,9.3,6.14,6.14,0,0,0,2.21-3.17c.25-.91.23-1.46.29-1.45s0,.12,0,.38a4.7,4.7,0,0,1-.13,1.12,6,6,0,0,1-2.18,3.45,6.19,6.19,0,0,1-5.92,1,6.05,6.05,0,0,1-2.94-2.19,6.26,6.26,0,0,1,8.72-8.79l.14.1a6,6,0,0,1,2.18,3.46,4.67,4.67,0,0,1,.13,1.11C244.61,324.84,244.6,325,244.58,325Z" opacity="0.2"/>
</svg>